<?xml version="1.0" standalone="no"?>
<!DOCTYPE svg PUBLIC "-//W3C//DTD SVG 20010904//EN"
 "http://www.w3.org/TR/2001/REC-SVG-20010904/DTD/svg10.dtd">
<svg version="1.0" xmlns="http://www.w3.org/2000/svg"
 width="260.000000pt" height="260.000000pt" viewBox="0 0 260.000000 260.000000"
 preserveAspectRatio="xMidYMid meet">
<metadata>
Created by potrace 1.11, written by Peter Selinger 2001-2013
</metadata>
<g transform="translate(0.000000,260.000000) scale(0.100000,-0.100000)"
fill="#000000" stroke="none">
<path d="M1215 2564 c-260 -44 -512 -167 -713 -348 -110 -100 -244 -290 -316
-449 -49 -108 -94 -253 -118 -386 -31 -170 -31 -478 -1 -608 88 -377 351 -634
751 -736 76 -19 114 -22 302 -22 237 0 292 7 456 60 476 155 826 555 934 1068
58 276 51 588 -18 787 -117 337 -403 568 -786 635 -110 19 -378 19 -491 -1z
m350 -359 c223 -47 381 -205 447 -450 29 -108 32 -400 5 -545 -67 -363 -250
-634 -511 -760 -99 -48 -182 -68 -306 -76 -311 -19 -544 157 -622 471 -29 117
-31 378 -4 525 70 388 279 682 565 793 140 55 294 70 426 42z"/>
</g>
</svg>
